<svg width="100" height="100" viewBox="0 0 100 100" fill="none" xmlns="http://www.w3.org/2000/svg">
<circle cx="50" cy="50" r="50" fill="#FFCF06"/>
<path d="M49.5824 82.0001H50.4912C54.309 81.9958 57.9692 80.4773 60.6688 77.7777C63.3684 75.0781 64.8869 71.4179 64.8912 67.6001V60.1745C67.6556 57.9551 69.886 55.1431 71.4177 51.946C72.9494 48.749 73.7432 45.2487 73.7406 41.7036C73.7406 28.6335 63.1071 18 50.0368 18C36.9665 18 26.333 28.6335 26.333 41.7036C26.3303 45.2487 27.1242 48.749 28.6559 51.9461C30.1876 55.1431 32.4181 57.9552 35.1825 60.1745V67.6001C35.1868 71.4179 36.7053 75.0781 39.4048 77.7777C42.1044 80.4773 45.7646 81.9958 49.5824 82.0001ZM50.4912 77.7335H49.5824C47.5526 77.7309 45.5702 77.1197 43.8914 75.9788C42.2126 74.8379 40.9145 73.2198 40.1649 71.3334H59.9088C59.1592 73.2198 57.8611 74.8379 56.1822 75.9788C54.5034 77.1197 52.521 77.7309 50.4912 77.7335ZM60.6245 67.0668H39.4492V61.7334H60.6245V67.0668ZM30.5997 41.7036C30.5997 30.9867 39.3192 22.2667 50.0368 22.2667C60.7544 22.2667 69.4739 30.9867 69.4739 41.7036C69.4674 44.7622 68.7422 47.7764 67.3568 50.5032C65.9715 53.2301 63.9647 55.5931 61.4983 57.402L61.4101 57.4667H38.6634L38.5748 57.402C36.1085 55.5931 34.1018 53.23 32.7165 50.5031C31.3313 47.7763 30.6062 44.7622 30.5997 41.7036Z" fill="white"/>
</svg>
