<svg width="148" height="257" viewBox="0 0 148 257" fill="none" xmlns="http://www.w3.org/2000/svg">
<g filter="url(#filter0_d_38_129)">
<path d="M7.64746 55.783C7.64746 25.1637 32.4693 0.341797 63.0886 0.341797V0.341797C93.708 0.341797 118.53 25.1637 118.53 55.783L118.53 130.342H7.64746L7.64746 55.783Z" fill="#E91D62"/>
<rect x="39.1914" y="81.5918" width="44.9265" height="48.75" fill="#E96DA1"/>
<rect x="46.8379" y="114.092" width="29.6324" height="16.25" fill="#E91D62"/>
<rect x="59.2646" y="102.621" width="4.77941" height="11.4706" fill="#E91D62"/>
<mask id="mask0_38_129" style="mask-type:alpha" maskUnits="userSpaceOnUse" x="39" y="81" width="46" height="50">
<rect x="39.1914" y="81.5918" width="44.9265" height="48.75" fill="#E96DA1"/>
</mask>
<g mask="url(#mask0_38_129)">
<line x1="62.6921" y1="103.973" x2="39.7509" y2="81.0317" stroke="#E91D62" stroke-width="3.82353"/>
</g>
<g opacity="0.5" clip-path="url(#clip0_38_129)">
<path d="M7.64746 55.783C7.64746 25.1637 32.4693 0.341797 63.0886 0.341797V0.341797C93.708 0.341797 118.53 25.1637 118.53 55.783L118.53 130.342H7.64746L7.64746 55.783Z" fill="#CF1554"/>
</g>
<path d="M86.0293 157.106H98.4558V214.459H86.0293V157.106Z" fill="#FFCF06"/>
<path d="M88.3962 157.106H96.0888V214.459H88.3962V157.106Z" fill="#FFCF06"/>
<path d="M28.6768 157.106H41.1032L41.1032 239.312H28.6768L28.6768 157.106Z" fill="#FFCF06"/>
<path d="M31.0437 157.106H38.7363L38.7363 239.312H31.0437L31.0437 157.106Z" fill="#FFCF06"/>
<path d="M0 137.989C0 133.766 3.42371 130.342 7.64706 130.342H122.353C126.576 130.342 130 133.766 130 137.989V149.459C130 153.683 126.576 157.107 122.353 157.107H7.64705C3.4237 157.107 0 153.683 0 149.459L0 137.989Z" fill="#C1165C"/>
<g filter="url(#filter1_d_38_129)">
<path d="M32.962 149.46V137.989H35.8621V149.46H32.962ZM28.6768 145.175V142.275H40.1473V145.175H28.6768Z" fill="white"/>
</g>
<g filter="url(#filter2_d_38_129)">
<path d="M99.4113 141.812V145.533H84.1172V141.812H99.4113Z" fill="white"/>
</g>
</g>
<defs>
<filter id="filter0_d_38_129" x="0" y="0.341797" width="147.51" height="256.481" filterUnits="userSpaceOnUse" color-interpolation-filters="sRGB">
<feFlood flood-opacity="0" result="BackgroundImageFix"/>
<feColorMatrix in="SourceAlpha" type="matrix" values="0 0 0 0 0 0 0 0 0 0 0 0 0 0 0 0 0 0 127 0" result="hardAlpha"/>
<feOffset dx="17.51" dy="17.51"/>
<feComposite in2="hardAlpha" operator="out"/>
<feColorMatrix type="matrix" values="0 0 0 0 0 0 0 0 0 0 0 0 0 0 0 0 0 0 0.15 0"/>
<feBlend mode="normal" in2="BackgroundImageFix" result="effect1_dropShadow_38_129"/>
<feBlend mode="normal" in="SourceGraphic" in2="effect1_dropShadow_38_129" result="shape"/>
</filter>
<filter id="filter1_d_38_129" x="27.4094" y="137.989" width="14.0053" height="14.0053" filterUnits="userSpaceOnUse" color-interpolation-filters="sRGB">
<feFlood flood-opacity="0" result="BackgroundImageFix"/>
<feColorMatrix in="SourceAlpha" type="matrix" values="0 0 0 0 0 0 0 0 0 0 0 0 0 0 0 0 0 0 127 0" result="hardAlpha"/>
<feOffset dy="1.26731"/>
<feGaussianBlur stdDeviation="0.633655"/>
<feComposite in2="hardAlpha" operator="out"/>
<feColorMatrix type="matrix" values="0 0 0 0 0 0 0 0 0 0 0 0 0 0 0 0 0 0 0.25 0"/>
<feBlend mode="normal" in2="BackgroundImageFix" result="effect1_dropShadow_38_129"/>
<feBlend mode="normal" in="SourceGraphic" in2="effect1_dropShadow_38_129" result="shape"/>
</filter>
<filter id="filter2_d_38_129" x="82.8771" y="141.812" width="17.7741" height="6.19985" filterUnits="userSpaceOnUse" color-interpolation-filters="sRGB">
<feFlood flood-opacity="0" result="BackgroundImageFix"/>
<feColorMatrix in="SourceAlpha" type="matrix" values="0 0 0 0 0 0 0 0 0 0 0 0 0 0 0 0 0 0 127 0" result="hardAlpha"/>
<feOffset dy="1.24006"/>
<feGaussianBlur stdDeviation="0.620032"/>
<feComposite in2="hardAlpha" operator="out"/>
<feColorMatrix type="matrix" values="0 0 0 0 0 0 0 0 0 0 0 0 0 0 0 0 0 0 0.25 0"/>
<feBlend mode="normal" in2="BackgroundImageFix" result="effect1_dropShadow_38_129"/>
<feBlend mode="normal" in="SourceGraphic" in2="effect1_dropShadow_38_129" result="shape"/>
</filter>
<clipPath id="clip0_38_129">
<rect width="56.3971" height="130" fill="white" transform="translate(62.1328 0.341797)"/>
</clipPath>
</defs>
</svg>
