<svg width="420" height="107" viewBox="0 0 420 107" fill="none" xmlns="http://www.w3.org/2000/svg">
<path d="M57.243 11.5464C57.243 10.9363 57.3592 10.3625 57.5916 9.8251C57.824 9.27313 58.1436 8.80105 58.5503 8.40886C58.957 8.00214 59.4291 7.68258 59.9665 7.45017C60.5185 7.20324 61.0995 7.07977 61.7096 7.07977H78.6609C79.271 7.07977 79.8447 7.20324 80.3822 7.45017C80.9341 7.68258 81.4135 8.00214 81.8202 8.40886C82.2269 8.80105 82.5465 9.27313 82.7789 9.8251C83.0113 10.3625 83.1275 10.9363 83.1275 11.5464V15.5772H78.6609V11.5464H61.7096V33.8576H78.6609V29.8486H83.1275V33.8576C83.1275 34.4677 83.0113 35.0487 82.7789 35.6007C82.5465 36.1381 82.2269 36.6102 81.8202 37.0169C81.4135 37.4236 80.9341 37.7432 80.3822 37.9756C79.8447 38.208 79.271 38.3242 78.6609 38.3242H61.7096C61.0995 38.3242 60.5185 38.208 59.9665 37.9756C59.4291 37.7432 58.957 37.4236 58.5503 37.0169C58.1436 36.6102 57.824 36.1381 57.5916 35.6007C57.3592 35.0487 57.243 34.4677 57.243 33.8576V11.5464ZM125.758 38.3242H121.465V19.412H109.504V38.3242H105.233V6.18645H109.504V19.2159C109.533 18.6494 109.663 18.1192 109.896 17.6253C110.128 17.1169 110.433 16.6812 110.811 16.318C111.203 15.9404 111.653 15.6498 112.162 15.4465C112.67 15.2286 113.215 15.1197 113.796 15.1197H121.465C122.061 15.1197 122.62 15.2359 123.143 15.4683C123.666 15.6862 124.116 15.9912 124.494 16.3834C124.886 16.761 125.191 17.2113 125.409 17.7343C125.641 18.2572 125.758 18.8164 125.758 19.412V38.3242ZM148.299 28.1927C148.299 27.5971 148.408 27.0451 148.626 26.5367C148.858 26.0138 149.163 25.5563 149.541 25.1641C149.933 24.7719 150.391 24.4668 150.914 24.249C151.436 24.0166 151.988 23.9004 152.569 23.9004H163.638V19.412H149.628V15.1197H163.638C164.233 15.1197 164.793 15.2359 165.316 15.4683C165.839 15.6862 166.289 15.9912 166.667 16.3834C167.059 16.761 167.364 17.2113 167.582 17.7343C167.814 18.2572 167.93 18.8164 167.93 19.412V38.3242H163.638V34.4023C163.594 34.9398 163.449 35.4482 163.202 35.9275C162.955 36.4068 162.636 36.8281 162.243 37.1912C161.866 37.5398 161.43 37.8158 160.936 38.0192C160.442 38.2225 159.919 38.3242 159.367 38.3242H152.569C151.988 38.3242 151.436 38.2153 150.914 37.9974C150.391 37.765 149.933 37.4599 149.541 37.0823C149.163 36.6901 148.858 36.2325 148.626 35.7096C148.408 35.1867 148.299 34.6275 148.299 34.0319V28.1927ZM152.569 34.0319H163.638V28.1927H152.569V34.0319ZM194.764 19.412V38.3242H190.493V15.1197H194.764V19.2159C194.793 18.6494 194.924 18.1192 195.156 17.6253C195.388 17.1169 195.694 16.6812 196.071 16.318C196.463 15.9404 196.914 15.6498 197.422 15.4465C197.93 15.2286 198.475 15.1197 199.056 15.1197H203.61C204.205 15.1197 204.757 15.2359 205.266 15.4683C205.789 15.6862 206.246 15.9912 206.639 16.3834C207.031 16.761 207.336 17.2113 207.554 17.7343C207.786 18.2572 207.902 18.8164 207.902 19.412V23.3339H203.61V19.412H194.764ZM228.635 19.412C228.635 18.8164 228.744 18.2572 228.962 17.7343C229.194 17.2113 229.499 16.761 229.877 16.3834C230.269 15.9912 230.727 15.6862 231.25 15.4683C231.773 15.2359 232.325 15.1197 232.906 15.1197H240.597C241.163 15.1197 241.701 15.2286 242.209 15.4465C242.718 15.6498 243.161 15.9404 243.538 16.318C243.931 16.6812 244.243 17.1169 244.475 17.6253C244.722 18.1192 244.853 18.6494 244.867 19.2159V15.1197H249.16V43.4009C249.16 43.9964 249.044 44.5557 248.811 45.0786C248.593 45.6015 248.288 46.0518 247.896 46.4295C247.518 46.8217 247.068 47.1267 246.545 47.3446C246.022 47.577 245.463 47.6932 244.867 47.6932H231.315V43.4009H244.867V37.4309H232.906C232.325 37.4309 231.773 37.322 231.25 37.1041C230.727 36.8717 230.269 36.5666 229.877 36.189C229.499 35.7968 229.194 35.3392 228.962 34.8163C228.744 34.2934 228.635 33.7341 228.635 33.1386V19.412ZM244.867 33.1386V19.412H232.906V33.1386H244.867ZM313.895 19.412C313.895 18.8164 314.004 18.2572 314.222 17.7343C314.455 17.2113 314.76 16.761 315.137 16.3834C315.53 15.9912 315.987 15.6862 316.51 15.4683C317.033 15.2359 317.585 15.1197 318.166 15.1197H330.128V6.18645H334.42V38.3242H330.128V34.4023C330.084 34.9398 329.939 35.4482 329.692 35.9275C329.445 36.4068 329.125 36.8281 328.733 37.1912C328.356 37.5398 327.92 37.8158 327.426 38.0192C326.932 38.2225 326.409 38.3242 325.857 38.3242H318.166C317.585 38.3242 317.033 38.2153 316.51 37.9974C315.987 37.765 315.53 37.4599 315.137 37.0823C314.76 36.6901 314.455 36.2325 314.222 35.7096C314.004 35.1867 313.895 34.6275 313.895 34.0319V19.412ZM318.166 34.0319H330.128V19.412H318.166V34.0319ZM123.569 60.0798V86.8576H139.627V91.3242H119.103V60.0798H123.569ZM179.577 81.9117H164.217V87.0319H179.577V91.3242H164.217C163.636 91.3242 163.084 91.2153 162.561 90.9974C162.038 90.765 161.58 90.4599 161.188 90.0823C160.81 89.6901 160.505 89.2325 160.273 88.7096C160.055 88.1867 159.946 87.6275 159.946 87.0319V72.412C159.946 71.8164 160.055 71.2572 160.273 70.7343C160.505 70.2113 160.81 69.761 161.188 69.3834C161.58 68.9912 162.038 68.6862 162.561 68.4683C163.084 68.2359 163.636 68.1197 164.217 68.1197H175.285C175.881 68.1197 176.44 68.2359 176.963 68.4683C177.486 68.6862 177.936 68.9912 178.314 69.3834C178.706 69.761 179.011 70.2113 179.229 70.7343C179.461 71.2572 179.577 71.8164 179.577 72.412V81.9117ZM164.217 72.412V77.6194H175.285V72.412H164.217ZM202.141 81.1927C202.141 80.5971 202.249 80.0451 202.467 79.5367C202.7 79.0138 203.005 78.5563 203.382 78.1641C203.775 77.7719 204.232 77.4668 204.755 77.249C205.278 77.0166 205.83 76.9004 206.411 76.9004H217.479V72.412H203.47V68.1197H217.479C218.075 68.1197 218.634 68.2359 219.157 68.4683C219.68 68.6862 220.13 68.9912 220.508 69.3834C220.9 69.761 221.205 70.2113 221.423 70.7343C221.656 71.2572 221.772 71.8164 221.772 72.412V91.3242H217.479V87.4023C217.436 87.9398 217.291 88.4482 217.044 88.9275C216.797 89.4068 216.477 89.8281 216.085 90.1912C215.707 90.5398 215.272 90.8158 214.778 91.0192C214.284 91.2225 213.761 91.3242 213.209 91.3242H206.411C205.83 91.3242 205.278 91.2153 204.755 90.9974C204.232 90.765 203.775 90.4599 203.382 90.0823C203.005 89.6901 202.7 89.2325 202.467 88.7096C202.249 88.1867 202.141 87.6275 202.141 87.0319V81.1927ZM206.411 87.0319H217.479V81.1927H206.411V87.0319ZM248.605 72.412V91.3242H244.335V68.1197H248.605V72.2159C248.634 71.6494 248.765 71.1192 248.998 70.6253C249.23 70.1169 249.535 69.6812 249.913 69.318C250.305 68.9404 250.755 68.6498 251.264 68.4465C251.772 68.2286 252.317 68.1197 252.898 68.1197H257.451C258.047 68.1197 258.599 68.2359 259.107 68.4683C259.63 68.6862 260.088 68.9912 260.48 69.3834C260.872 69.761 261.177 70.2113 261.395 70.7343C261.628 71.2572 261.744 71.8164 261.744 72.412V76.3339H257.451V72.412H248.605ZM303.001 91.3242H298.709V72.412H286.747V91.3242H282.477V68.1197H286.747V72.2159C286.776 71.6494 286.907 71.1192 287.139 70.6253C287.372 70.1169 287.677 69.6812 288.054 69.318C288.447 68.9404 288.897 68.6498 289.405 68.4465C289.914 68.2286 290.458 68.1197 291.039 68.1197H298.709C299.305 68.1197 299.864 68.2359 300.387 68.4683C300.91 68.6862 301.36 68.9912 301.738 69.3834C302.13 69.761 302.435 70.2113 302.653 70.7343C302.885 71.2572 303.001 71.8164 303.001 72.412V91.3242ZM330.053 68.1197V91.3242H325.76V68.1197H330.053ZM325.543 59.1864H330.271V63.6531H325.543V59.1864ZM373.358 91.3242H369.066V72.412H357.104V91.3242H352.834V68.1197H357.104V72.2159C357.133 71.6494 357.264 71.1192 357.496 70.6253C357.729 70.1169 358.034 69.6812 358.412 69.318C358.804 68.9404 359.254 68.6498 359.762 68.4465C360.271 68.2286 360.816 68.1197 361.397 68.1197H369.066C369.662 68.1197 370.221 68.2359 370.744 68.4683C371.267 68.6862 371.717 68.9912 372.095 69.3834C372.487 69.761 372.792 70.2113 373.01 70.7343C373.242 71.2572 373.358 71.8164 373.358 72.412V91.3242ZM395.9 72.412C395.9 71.8164 396.009 71.2572 396.227 70.7343C396.459 70.2113 396.764 69.761 397.142 69.3834C397.534 68.9912 397.991 68.6862 398.514 68.4683C399.037 68.2359 399.589 68.1197 400.17 68.1197H407.861C408.428 68.1197 408.965 68.2286 409.474 68.4465C409.982 68.6498 410.425 68.9404 410.803 69.318C411.195 69.6812 411.507 70.1169 411.74 70.6253C411.987 71.1192 412.117 71.6494 412.132 72.2159V68.1197H416.424V96.4009C416.424 96.9964 416.308 97.5557 416.076 98.0786C415.858 98.6015 415.553 99.0518 415.161 99.4295C414.783 99.8217 414.333 100.127 413.81 100.345C413.287 100.577 412.728 100.693 412.132 100.693H398.58V96.4009H412.132V90.4309H400.17C399.589 90.4309 399.037 90.322 398.514 90.1041C397.991 89.8717 397.534 89.5666 397.142 89.189C396.764 88.7968 396.459 88.3392 396.227 87.8163C396.009 87.2934 395.9 86.7341 395.9 86.1386V72.412ZM412.132 86.1386V72.412H400.17V86.1386H412.132Z" fill="white"/>
<path d="M291.332 28.9117H275.972V34.0319H291.332V38.3242H275.972C275.391 38.3242 274.839 38.2153 274.316 37.9974C273.793 37.765 273.335 37.4599 272.943 37.0823C272.565 36.6901 272.26 36.2325 272.028 35.7096C271.81 35.1867 271.701 34.6275 271.701 34.0319V19.412C271.701 18.8164 271.81 18.2572 272.028 17.7343C272.26 17.2113 272.565 16.761 272.943 16.3834C273.335 15.9912 273.793 15.6862 274.316 15.4683C274.839 15.2359 275.391 15.1197 275.972 15.1197H287.04C287.636 15.1197 288.195 15.2359 288.718 15.4683C289.241 15.6862 289.691 15.9912 290.069 16.3834C290.461 16.761 290.766 17.2113 290.984 17.7343C291.216 18.2572 291.332 18.8164 291.332 19.412V28.9117ZM275.972 19.412V24.6194H287.04V19.412H275.972Z" fill="#FFCF06"/>
<path d="M289.391 8.77051H300.547C300.809 8.77051 301.012 8.86492 301.157 9.05376C301.317 9.24259 301.368 9.48952 301.31 9.79456L301.07 10.9058C300.954 11.5304 300.569 11.8427 299.915 11.8427H289.217C288.491 11.8427 288.222 11.5013 288.411 10.8186L288.803 9.24985C288.89 8.93029 289.086 8.77051 289.391 8.77051Z" fill="#FFCF06"/>
<circle cx="80.5384" cy="74.7493" r="11.1351" fill="#FFCF06"/>
<path d="M101.8 78.5514C101.859 78.2202 101.651 77.9002 101.324 77.8204C99.6646 77.4151 97.9559 78.3661 97.4424 80.019C96.6196 82.6673 95.1603 85.1616 93.0557 87.2662C90.9512 89.3707 88.4569 90.8301 85.8086 91.6528C84.1557 92.1663 83.2047 93.875 83.61 95.5342C83.6898 95.8609 84.0098 96.0695 84.3409 96.0105C84.7839 95.9317 85.2249 95.839 85.6632 95.7323C86.0997 95.6261 86.5337 95.5061 86.9642 95.3724C90.2012 94.3667 93.2481 92.5821 95.8099 90.0203C98.3717 87.4585 100.156 84.4116 101.162 81.1747C101.296 80.7441 101.416 80.3102 101.522 79.8736C101.629 79.4353 101.721 78.9943 101.8 78.5514ZM76.7352 96.0105C77.0664 96.0695 77.3864 95.8609 77.4662 95.5342C77.8715 93.875 76.9205 92.1663 75.2676 91.6528C72.6193 90.8301 70.125 89.3707 68.0204 87.2662C65.9159 85.1617 64.4566 82.6673 63.6338 80.0191C63.1203 78.3661 61.4116 77.4151 59.7524 77.8204C59.4257 77.9002 59.2171 78.2202 59.2761 78.5514C59.3549 78.9943 59.4476 79.4353 59.5543 79.8736C59.6605 80.3102 59.7805 80.7441 59.9142 81.1747C60.9199 84.4116 62.7045 87.4585 65.2663 90.0203C67.8281 92.5821 70.875 94.3667 74.112 95.3724C74.5425 95.5062 74.9764 95.6261 75.413 95.7323C75.8513 95.839 76.2923 95.9317 76.7352 96.0105ZM59.2761 70.9457C59.2171 71.2768 59.4257 71.5968 59.7524 71.6766C61.4116 72.0819 63.1203 71.1309 63.6338 69.478C64.4566 66.8298 65.9159 64.3354 68.0204 62.2309C70.125 60.1263 72.6193 58.667 75.2676 57.8442C76.9205 57.3307 77.8715 55.622 77.4662 53.9629C77.3864 53.6361 77.0664 53.4276 76.7352 53.4865C76.2923 53.5654 75.8513 53.6581 75.413 53.7647C74.9764 53.8709 74.5425 53.9909 74.1119 54.1247C70.875 55.1303 67.8281 56.9149 65.2663 59.4767C62.7045 62.0385 60.9199 65.0854 59.9142 68.3224C59.7805 68.7529 59.6605 69.1869 59.5543 69.6234C59.4476 70.0617 59.3549 70.5027 59.2761 70.9457ZM84.3409 53.4865C84.0098 53.4276 83.6898 53.6361 83.61 53.9629C83.2047 55.622 84.1557 57.3307 85.8086 57.8442C88.4568 58.667 90.9512 60.1263 93.0557 62.2309C95.1603 64.3354 96.6196 66.8298 97.4424 69.478C97.9559 71.1309 99.6646 72.0819 101.324 71.6766C101.651 71.5968 101.859 71.2768 101.8 70.9457C101.721 70.5027 101.629 70.0617 101.522 69.6234C101.416 69.1869 101.296 68.7529 101.162 68.3224C100.156 65.0854 98.3717 62.0385 95.8099 59.4767C93.2481 56.9149 90.2012 55.1303 86.9642 54.1247C86.5337 53.9909 86.0997 53.8709 85.6632 53.7647C85.2249 53.6581 84.7839 53.5654 84.3409 53.4865Z" fill="#FFCF06" stroke="#FFCF06" stroke-width="1.27493" stroke-linecap="round" stroke-linejoin="round"/>
<circle cx="65.1474" cy="61.2695" r="6.36212" fill="#FFCF06" stroke="#3F4948" stroke-width="1.11556"/>
<path d="M61.3541 62.4912H68.7005C68.8727 62.4912 69.0066 62.4287 69.1023 62.3036C69.2075 62.1785 69.241 62.0149 69.2027 61.8128L69.0449 61.0766C68.9684 60.6628 68.7149 60.4559 68.2844 60.4559H61.2393C60.761 60.4559 60.5841 60.6821 60.7084 61.1344L60.9667 62.1737C61.0241 62.3854 61.1532 62.4912 61.3541 62.4912Z" fill="#3F4948"/>
</svg>
