<svg width="47" height="47" viewBox="0 0 47 47" fill="none" xmlns="http://www.w3.org/2000/svg">
<circle cx="23.2184" cy="23.3552" r="22.8513" fill="#3A3939"/>
<path d="M32.0075 20.4258H15.6015C13.6599 20.4258 12.0859 21.9998 12.0859 23.9414C12.0859 25.883 13.6599 27.4569 15.6015 27.4569H32.0075C33.9491 27.4569 35.5231 25.883 35.5231 23.9414C35.5231 21.9998 33.9491 20.4258 32.0075 20.4258Z" fill="white"/>
<path d="M20.2891 15.7386V32.1446C20.2891 34.0862 21.863 35.6602 23.8046 35.6602C25.7462 35.6602 27.3202 34.0862 27.3202 32.1446V15.7386C27.3202 13.797 25.7462 12.223 23.8046 12.223C21.863 12.223 20.2891 13.797 20.2891 15.7386Z" fill="white"/>
</svg>
