<svg width="50" height="51" viewBox="0 0 50 51" fill="none" xmlns="http://www.w3.org/2000/svg">
<path d="M3.10547 18.75V13.125C3.10547 7.5225 7.47206 3 12.8814 3H18.3125M31.3471 3H36.7782C42.1875 3 46.5541 7.5225 46.5541 13.125V18.75M46.5541 34.5V37.875C46.5541 43.4775 42.1875 48 36.7782 48H33.5195M18.3125 48H12.8814C7.47206 48 3.10547 43.4775 3.10547 37.875V32.25M37.8644 25.5V21M37.8644 25.5H11.7952M37.8644 25.5V30M11.7952 25.5V21M11.7952 25.5V30M24.8298 12H29.1746M24.8298 12V39M24.8298 12H20.4849M24.8298 39H29.1746M24.8298 39H20.4849" stroke="black" stroke-width="5" stroke-linecap="round" stroke-linejoin="round"/>
</svg>
