<svg width="100" height="100" viewBox="0 0 100 100" fill="none" xmlns="http://www.w3.org/2000/svg">
<path d="M50 0C40.1109 0 30.444 2.93245 22.2215 8.42652C13.999 13.9206 7.59043 21.7295 3.80604 30.8658C0.0216642 40.0021 -0.968502 50.0555 0.960758 59.7545C2.89002 69.4535 7.65206 78.3627 14.6447 85.3553C21.6373 92.3479 30.5465 97.11 40.2455 99.0392C49.9445 100.969 59.9979 99.9783 69.1342 96.194C78.2705 92.4096 86.0794 86.0009 91.5735 77.7785C97.0675 69.556 100 59.889 100 50C100 43.4339 98.7067 36.9321 96.194 30.8658C93.6812 24.7995 89.9983 19.2876 85.3553 14.6447C80.7124 10.0017 75.2005 6.31876 69.1342 3.80602C63.0679 1.29329 56.5661 0 50 0V0ZM40 65C40 66.3261 39.4732 67.5978 38.5355 68.5355C37.5979 69.4732 36.3261 70 35 70C33.6739 70 32.4022 69.4732 31.4645 68.5355C30.5268 67.5978 30 66.3261 30 65V35C30 33.6739 30.5268 32.4021 31.4645 31.4645C32.4022 30.5268 33.6739 30 35 30C36.3261 30 37.5979 30.5268 38.5355 31.4645C39.4732 32.4021 40 33.6739 40 35V65ZM70 65C70 66.3261 69.4732 67.5978 68.5355 68.5355C67.5979 69.4732 66.3261 70 65 70C63.6739 70 62.4022 69.4732 61.4645 68.5355C60.5268 67.5978 60 66.3261 60 65V35C60 33.6739 60.5268 32.4021 61.4645 31.4645C62.4022 30.5268 63.6739 30 65 30C66.3261 30 67.5979 30.5268 68.5355 31.4645C69.4732 32.4021 70 33.6739 70 35V65Z" fill="white"/>
</svg>
