<svg width="100" height="100" viewBox="0 0 100 100" fill="none" xmlns="http://www.w3.org/2000/svg">
<path d="M47.5 62.9995L61.55 49.9995L47.5 36.9995V62.9995Z" fill="#54EE3B"/>
<path d="M50 0C40.111 0 30.444 2.93245 22.2215 8.42652C13.9991 13.9206 7.59043 21.7295 3.80605 30.8658C0.0216642 40.0021 -0.968502 50.0555 0.960758 59.7545C2.89002 69.4536 7.65206 78.3627 14.6447 85.3553C21.6373 92.348 30.5465 97.11 40.2455 99.0393C49.9445 100.969 59.9979 99.9784 69.1342 96.194C78.2705 92.4096 86.0794 86.001 91.5735 77.7785C97.0675 69.556 100 59.8891 100 50C100 43.4339 98.7067 36.9321 96.194 30.8658C93.6813 24.7995 89.9983 19.2876 85.3553 14.6447C80.7124 10.0017 75.2005 6.31876 69.1342 3.80602C63.0679 1.29329 56.5661 0 50 0ZM70 55.9L51.8 72.75C50.2101 74.1892 48.1446 74.9905 46 75C44.8099 74.9972 43.6339 74.7416 42.55 74.25C41.0753 73.6534 39.8119 72.6308 38.9213 71.3127C38.0307 69.9945 37.5532 68.4408 37.55 66.85V33.15C37.5532 31.5592 38.0307 30.0055 38.9213 28.6873C39.8119 27.3692 41.0753 26.3465 42.55 25.75C44.0692 25.066 45.7558 24.8435 47.4004 25.1102C49.0449 25.3769 50.5749 26.121 51.8 27.25L70 44.1C70.8185 44.8495 71.4721 45.7611 71.9192 46.7768C72.3663 47.7925 72.5972 48.8902 72.5972 50C72.5972 51.1098 72.3663 52.2074 71.9192 53.2232C71.4721 54.2389 70.8185 55.1505 70 55.9Z" fill="#54EE3B"/>
</svg>
