<svg width="100" height="100" viewBox="0 0 100 100" fill="none" xmlns="http://www.w3.org/2000/svg">
<path d="M100 50C100 77.6142 77.6142 100 50 100C22.3858 100 0 77.6142 0 50C0 22.3858 22.3858 0 50 0C77.6142 0 100 22.3858 100 50Z" fill="#EE3B46"/>
<path d="M81.2063 55.4441C80.2566 55.1479 79.2284 55.2394 78.3459 55.6987C77.4633 56.1579 76.798 56.9476 76.4949 57.8957C74.7142 63.3439 71.2428 68.0813 66.5857 71.4188C61.9285 74.7563 56.3287 76.5197 50.6008 76.4525C43.5161 76.5331 36.6886 73.799 31.6155 68.8496C26.5424 63.9003 23.6376 57.1398 23.5383 50.0506C23.6376 42.9613 26.5424 36.2008 31.6155 31.2515C36.6886 26.3022 43.5161 23.568 50.6008 23.6486C56.9992 23.6331 63.2008 25.8619 68.1274 29.9474L59.9483 28.5895C59.4581 28.5088 58.9568 28.5259 58.4732 28.6397C57.9897 28.7536 57.5333 28.9619 57.1305 29.2529C56.7277 29.5438 56.3863 29.9115 56.126 30.335C55.8657 30.7584 55.6916 31.2291 55.6138 31.7201C55.5331 32.2106 55.5502 32.7122 55.6639 33.1961C55.7777 33.68 55.9859 34.1367 56.2766 34.5398C56.5674 34.9429 56.9349 35.2845 57.358 35.5449C57.7811 35.8054 58.2515 35.9796 58.7422 36.0575L74.7234 38.6977H75.3641C75.8012 38.6972 76.2348 38.6206 76.6456 38.4714C76.7837 38.419 76.9113 38.3423 77.0226 38.2451C77.2928 38.1446 77.5468 38.0048 77.7764 37.8302L78.1156 37.4153C78.1156 37.2268 78.4548 37.0759 78.6056 36.8496C78.7564 36.6233 78.6056 36.4724 78.7941 36.3215C78.8982 36.1019 78.9864 35.875 79.0579 35.6426L81.8848 20.5558C81.9788 20.0605 81.9744 19.5515 81.8719 19.0579C81.7694 18.5643 81.5707 18.0957 81.2872 17.6789C81.0037 17.2621 80.6409 16.9053 80.2196 16.6288C79.7983 16.3523 79.3267 16.1616 78.8317 16.0675C78.3368 15.9734 77.8281 15.9777 77.3348 16.0803C76.8416 16.1829 76.3733 16.3818 75.9568 16.6655C75.1157 17.2384 74.5364 18.1222 74.3465 19.1226L73.3288 24.5915C67.0192 19.1197 58.9501 16.1068 50.6008 16.1052C41.5169 16.0247 32.7721 19.5536 26.2853 25.9176C19.7985 32.2815 16.0995 40.9607 16 50.0506C16.0995 59.1404 19.7985 67.8196 26.2853 74.1835C32.7721 80.5475 41.5169 84.0764 50.6008 83.9959C57.9625 84.1091 65.166 81.8541 71.1507 77.5628C77.1354 73.2715 81.5852 67.1707 83.8447 60.1587C83.9877 59.6759 84.0326 59.1692 83.9767 58.6687C83.9208 58.1681 83.7654 57.6839 83.5195 57.2444C83.2735 56.805 82.9422 56.4193 82.5449 56.1101C82.1476 55.8009 81.6925 55.5745 81.2063 55.4441Z" fill="white"/>
</svg>
