<svg width="94" height="34" viewBox="0 0 94 34" fill="none" xmlns="http://www.w3.org/2000/svg">
<path d="M31.4175 30.9763L46.7444 11.0204L60.6372 30.9417C61.1315 31.6687 61.9116 32.1084 62.7775 32.3689C63.6495 32.6312 64.7122 32.7445 65.9273 32.7445C68.087 32.7445 69.9516 32.3085 71.0187 31.0245L92.028 5.75762L92.0328 5.75184C92.3145 5.40849 92.5829 4.95177 92.6125 4.40188C92.6451 3.79564 92.3783 3.29582 92.0053 2.94094C91.6617 2.614 91.2178 2.39391 90.7727 2.23387C90.3145 2.06914 89.7738 1.9397 89.1675 1.83655L89.1651 1.83614C86.8452 1.44662 84.7931 1.73297 83.4963 3.21353L83.4803 3.23184L83.465 3.25081L66.4373 24.4547L52.0437 3.80601C51.1091 2.43034 49.2772 2.00307 47.2295 2.00307C45.1022 2.00307 43.2229 2.41534 42.2364 3.74044L42.2356 3.74156L26.7336 24.6168L10.4713 3.27817C9.34203 1.76762 7.27047 1.51811 4.98782 1.83097L4.98782 1.83095L4.98095 1.83193C4.37363 1.91894 3.83012 2.03473 3.36729 2.18898C2.9168 2.33912 2.46779 2.54992 2.11565 2.87003C1.73468 3.21635 1.45878 3.70493 1.4667 4.30435C1.47394 4.85215 1.71765 5.31976 1.98519 5.67912L1.98516 5.67914L1.99107 5.68694L21.1587 30.9764C22.1479 32.3257 24.0566 32.7445 26.22 32.7445C27.2432 32.7445 28.1945 32.6464 29.0664 32.4398C30.0232 32.213 30.8554 31.7524 31.4175 30.9763Z" fill="#FFCF06" stroke="#FFCF06" stroke-width="2.27787"/>
</svg>
