<svg width="76" height="76" viewBox="0 0 76 76" fill="none" xmlns="http://www.w3.org/2000/svg">
<path d="M74.1886 67.9796L60.0072 53.84C64.5827 48.0108 67.0654 40.8125 67.0562 33.4021C67.0562 26.8026 65.0992 20.3512 61.4327 14.8639C57.7662 9.37657 52.5548 5.09972 46.4576 2.57418C40.3604 0.0486377 33.6512 -0.612159 27.1785 0.67535C20.7058 1.96286 14.7602 5.14085 10.0936 9.80744C5.42698 14.474 2.24899 20.4196 0.961483 26.8924C-0.326026 33.3651 0.33477 40.0743 2.86031 46.1715C5.38585 52.2687 9.6627 57.48 15.15 61.1465C20.6374 64.8131 27.0887 66.7701 33.6883 66.7701C41.0987 66.7793 48.297 64.2966 54.1261 59.7211L68.2658 73.9025C68.6535 74.2934 69.1148 74.6037 69.6231 74.8155C70.1314 75.0272 70.6766 75.1362 71.2272 75.1362C71.7778 75.1362 72.323 75.0272 72.8312 74.8155C73.3395 74.6037 73.8008 74.2934 74.1886 73.9025C74.5795 73.5147 74.8898 73.0534 75.1016 72.5451C75.3133 72.0368 75.4224 71.4917 75.4224 70.941C75.4224 70.3904 75.3133 69.8453 75.1016 69.337C74.8898 68.8287 74.5795 68.3674 74.1886 67.9796ZM8.66231 33.4021C8.66231 28.4525 10.1301 23.614 12.8799 19.4985C15.6298 15.383 19.5383 12.1753 24.1112 10.2812C28.6841 8.38701 33.716 7.89141 38.5706 8.85704C43.4251 9.82268 47.8843 12.2062 51.3843 15.7061C54.8842 19.2061 57.2677 23.6652 58.2333 28.5198C59.199 33.3744 58.7034 38.4062 56.8092 42.9791C54.9151 47.552 51.7074 51.4606 47.5919 54.2104C43.4764 56.9603 38.6379 58.4281 33.6883 58.4281C27.051 58.4281 20.6855 55.7914 15.9922 51.0981C11.299 46.4049 8.66231 40.0394 8.66231 33.4021Z" fill="black"/>
<path d="M32.6768 27.6342C32.6768 26.758 33.1149 26.3199 33.9911 26.3199C34.8673 26.3199 35.3054 26.758 35.3054 27.6342V41.5656C35.3054 42.4418 34.8673 42.8799 33.9911 42.8799C33.1149 42.8799 32.6768 42.4418 32.6768 41.5656V27.6342ZM26.6686 36.1207C25.7924 36.1207 25.3543 35.6826 25.3543 34.8064C25.3543 33.9302 25.7924 33.4921 26.6686 33.4921H40.6C41.4762 33.4921 41.9143 33.9302 41.9143 34.8064C41.9143 35.6826 41.4762 36.1207 40.6 36.1207H26.6686ZM26.6686 36.1207C25.7924 36.1207 25.3543 35.6826 25.3543 34.8064C25.3543 33.9302 25.7924 33.4921 26.6686 33.4921H40.6C41.4762 33.4921 41.9143 33.9302 41.9143 34.8064C41.9143 35.6826 41.4762 36.1207 40.6 36.1207H26.6686Z" fill="black"/>
</svg>
