<svg width="76" height="76" viewBox="0 0 76 76" fill="none" xmlns="http://www.w3.org/2000/svg">
<path d="M74.4601 67.9796L60.2787 53.84C64.8542 48.0108 67.3369 40.8125 67.3277 33.4021C67.3277 26.8026 65.3707 20.3512 61.7042 14.8639C58.0376 9.37657 52.8263 5.09972 46.7291 2.57418C40.6319 0.0486377 33.9227 -0.612159 27.45 0.67535C20.9772 1.96286 15.0316 5.14085 10.3651 9.80744C5.69846 14.474 2.52048 20.4196 1.23297 26.8924C-0.0545416 33.3651 0.606255 40.0743 3.13179 46.1715C5.65733 52.2687 9.93419 57.48 15.4215 61.1465C20.9088 64.8131 27.3602 66.7701 33.9597 66.7701C41.3702 66.7793 48.5685 64.2966 54.3976 59.7211L68.5373 73.9025C68.925 74.2934 69.3863 74.6037 69.8946 74.8155C70.4029 75.0272 70.948 75.1362 71.4987 75.1362C72.0493 75.1362 72.5945 75.0272 73.1027 74.8155C73.611 74.6037 74.0723 74.2934 74.4601 73.9025C74.851 73.5147 75.1613 73.0534 75.3731 72.5451C75.5848 72.0368 75.6938 71.4917 75.6938 70.941C75.6938 70.3904 75.5848 69.8453 75.3731 69.337C75.1613 68.8287 74.851 68.3674 74.4601 67.9796ZM8.93379 33.4021C8.93379 28.4525 10.4015 23.614 13.1514 19.4985C15.9013 15.383 19.8098 12.1753 24.3827 10.2812C28.9556 8.38701 33.9875 7.89141 38.8421 8.85704C43.6966 9.82268 48.1558 12.2062 51.6558 15.7061C55.1557 19.2061 57.5392 23.6652 58.5048 28.5198C59.4705 33.3744 58.9749 38.4062 57.0807 42.9791C55.1866 47.552 51.9789 51.4606 47.8634 54.2104C43.7479 56.9603 38.9094 58.4281 33.9597 58.4281C27.3225 58.4281 20.957 55.7914 16.2637 51.0981C11.5705 46.4049 8.93379 40.0394 8.93379 33.4021Z" fill="black"/>
<path d="M28.1918 36.4587C27.8413 36.4587 27.5347 36.3272 27.2718 36.0644C27.0089 35.8015 26.8775 35.4949 26.8775 35.1444C26.8775 34.7814 27.0089 34.4747 27.2718 34.2244C27.5347 33.9615 27.8413 33.8301 28.1918 33.8301H38.5559C38.9189 33.8301 39.2255 33.9615 39.4759 34.2244C39.7387 34.4747 39.8702 34.7814 39.8702 35.1444C39.8702 35.4949 39.7387 35.8015 39.4759 36.0644C39.2255 36.3272 38.9189 36.4587 38.5559 36.4587H28.1918Z" fill="black"/>
</svg>
